<?xml version="1.0" encoding="UTF-8"?>
<svg xmlns="http://www.w3.org/2000/svg" viewBox="0 0 360 360" width="360" height="360">
<path d="M127.01 294.65C128.3 287.91 132.27 280.95 134.75 274.52C139.53 262.14 144.28 249.72 149.17 237.38C150.92 232.99 157.38 219.54 156.85 215.75C142.64 217.25 128.42 218.75 114.21 220.25C125.51 192.42 136.82 164.58 148.12 136.75C140.16 136.79 132.21 136.84 124.25 136.88C140.83 104.91 157.41 72.94 173.98 40.97C197.59 39.06 221.19 37.16 244.79 35.25C223.38 65.75 201.98 96.25 180.58 126.75C193.66 124.58 206.74 122.42 219.82 120.25C217.66 125.78 212.62 131.05 209.26 136C200.41 148.98 191.46 161.89 182.6 174.86C179.01 180.11 175.38 185.34 171.8 190.58C170.5 192.48 168.43 194.44 168.24 196.75C180.07 195.76 191.91 194.76 203.75 193.77C203.71 196.29 200.73 198.86 199.17 200.9C194.49 207.03 189.97 213.38 185.04 219.31C171.2 235.96 158.24 253.66 145.23 270.98C141.31 276.21 137.2 281.3 133.3 286.55C131.51 288.96 129.33 293.04 127.01 294.65ZM168.99 42.12C169.04 44.85 166.53 48.07 165.26 50.48C162.2 56.27 159.24 62.12 156.17 67.89C147.86 83.5 139.74 99.23 131.71 114.97C128.35 121.54 120.34 133.72 118.87 140.25C126.83 140.11 134.79 139.96 142.75 139.82C143.59 143.69 137.01 155.68 135.28 160.03C129.34 174.97 122.89 189.74 116.87 204.65C115.11 209 109.2 220.09 109.25 224.08C123.6 222.63 137.94 221.19 152.29 219.75C151.81 225.83 144.68 239.92 142.21 246.41C137.65 258.44 132.67 270.32 128.17 282.37C125.49 289.56 123 297.1 119.77 304.06C119.19 305.33 118.13 306.23 117.56 307.51C111.46 315.23 105.35 322.95 99.25 330.67C98.88 327.98 100.68 325 101.69 322.44C103.72 317.31 105.64 312.12 107.74 307.01C115.58 287.97 122.87 268.63 130.18 249.38C132.18 244.1 134.24 238.83 136.34 233.6C137.28 231.26 139.16 228.31 138.75 225.77C124.58 227.24 110.42 228.71 96.25 230.18C95.91 226.59 102.93 212.24 104.77 208.06C110.58 194.86 115.82 181.34 121.26 167.99C123.41 162.7 129.64 151.34 129.82 146.25C121.91 146.42 113.99 146.58 106.07 146.75C105.82 143.99 108.53 140.51 109.82 138.1C113.54 131.13 117.15 124.09 120.8 117.09C133.64 92.48 146.22 67.72 159.32 43.25C162.54 42.87 165.76 42.5 168.99 42.12Z" fill="#ffbd00" fill-rule="evenodd" stroke="#ffbd00" stroke-width="0.25" stroke-linejoin="round"/>
<path d="M221 136.52C219.51 138.68 218.02 140.84 216.54 143C214.36 146.17 212.18 149.35 210 152.52C208.51 154.68 207.02 156.84 205.54 159C203.36 162.17 201.18 165.33 199 168.5C197.51 170.67 196.02 172.83 194.54 175C192.02 178.92 189.51 182.83 187 186.75C191.65 187.68 202.78 185.8 207.77 185.02C209.39 184.76 211.11 185.24 212.73 184.98C215.68 184.52 220.91 182.74 223.5 184.75C216.73 195.55 206.85 205.62 199.27 216.02C179.94 242.51 158.59 267.53 139.27 294.02C132.82 302.85 125.71 311.19 119.27 320.02C116.97 323.16 112.47 330.89 109.25 332.5C108.58 328.97 114.54 317.42 116.09 313.34C116.71 311.73 118.36 308.97 117.56 307.51C118.13 306.23 119.19 305.33 119.77 304.06C123 297.1 125.49 289.56 128.17 282.37C132.67 270.32 137.65 258.44 142.21 246.41C144.68 239.92 151.81 225.83 152.29 219.75C137.94 221.19 123.6 222.63 109.25 224.08C109.2 220.09 115.11 209 116.87 204.65C122.89 189.74 129.34 174.97 135.28 160.03C137.01 155.68 143.59 143.69 142.75 139.82C134.79 139.96 126.83 140.11 118.87 140.25C120.34 133.72 128.35 121.54 131.71 114.97C139.74 99.23 147.86 83.5 156.17 67.89C159.24 62.12 162.2 56.27 165.26 50.48C166.53 48.07 169.04 44.85 168.99 42.12C171.46 40.11 171.81 34.78 174.84 33.59C177.39 32.6 180.1 33.4 182.73 32.98C188.2 32.13 193.8 31.87 199.27 31.02C200.89 30.76 202.61 31.24 204.23 30.98C216.8 29.02 229.7 28.98 242.27 27.02C244.05 26.74 245.95 27.26 247.73 26.98C252.68 26.21 259.03 24.76 264 25.75C242.67 55.92 221.33 86.08 200 116.25C202.13 117.91 207.19 115.42 209.77 115.02C215.75 114.08 221.7 113.05 227.66 111.91C231.23 111.22 235.36 109.52 239 110.25C233 119.01 227 127.76 221 136.52ZM173.98 40.97C157.41 72.94 140.83 104.91 124.25 136.88C132.21 136.84 140.16 136.79 148.12 136.75C136.82 164.58 125.51 192.42 114.21 220.25C128.42 218.75 142.64 217.25 156.85 215.75C157.38 219.54 150.92 232.99 149.17 237.38C144.28 249.72 139.53 262.14 134.75 274.52C132.27 280.95 128.3 287.91 127.01 294.65C124.73 300.68 122.44 306.72 120.16 312.75C152.17 271.25 184.18 229.75 216.2 188.25C213.51 186.83 208.33 188.35 205.31 188.7C199.07 189.43 186.19 191.55 180.5 190.75C197.61 165.42 214.72 140.08 231.83 114.75C218.74 116.92 205.64 119.08 192.55 121.25C194.74 115.3 204.66 103.8 208.76 98.02C219.2 83.3 229.56 68.51 240.18 53.91C244.25 48.31 248.22 42.63 252.26 37C253.86 34.77 256.74 31.97 256.89 29.25C251.44 28.81 245.39 30.22 239.93 30.74C224.56 32.2 209.15 33.86 193.75 34.93C189.8 35.21 179.62 35.06 176.47 36.74C175.22 37.4 174.38 39.72 173.98 40.97Z" fill="#ffffff" fill-rule="evenodd" stroke="#ffffff" stroke-width="0.25" stroke-linejoin="round"/>
<path d="M127.01 294.65C129.33 293.04 131.51 288.96 133.3 286.55C137.2 281.3 141.31 276.21 145.23 270.98C158.24 253.66 171.2 235.96 185.04 219.31C189.97 213.38 194.49 207.03 199.17 200.9C200.73 198.86 203.71 196.29 203.75 193.77C191.91 194.76 180.07 195.76 168.24 196.75C168.43 194.44 170.5 192.48 171.8 190.58C175.38 185.34 179.01 180.11 182.6 174.86C191.46 161.89 200.41 148.98 209.26 136C212.62 131.05 217.66 125.78 219.82 120.25C206.74 122.42 193.66 124.58 180.58 126.75C201.98 96.25 223.38 65.75 244.79 35.25C221.19 37.16 197.59 39.06 173.98 40.97C174.38 39.72 175.22 37.4 176.47 36.74C179.62 35.06 189.8 35.21 193.75 34.93C209.15 33.86 224.56 32.2 239.93 30.74C245.39 30.22 251.44 28.81 256.89 29.25C256.74 31.97 253.86 34.77 252.26 37C248.22 42.63 244.25 48.31 240.18 53.91C229.56 68.51 219.2 83.3 208.76 98.02C204.66 103.8 194.74 115.3 192.55 121.25C205.64 119.08 218.74 116.92 231.83 114.75C214.72 140.08 197.61 165.42 180.5 190.75C186.19 191.55 199.07 189.43 205.31 188.7C208.33 188.35 213.51 186.83 216.2 188.25C184.18 229.75 152.17 271.25 120.16 312.75C122.44 306.72 124.73 300.68 127.01 294.65Z" fill="#f09202" fill-rule="evenodd" stroke="#f09202" stroke-width="0.25" stroke-linejoin="round"/>
<path d="M221 136.52C219.51 138.68 218.02 140.84 216.54 143C218.02 140.84 219.51 138.68 221 136.52ZM210 152.52C208.51 154.68 207.02 156.84 205.54 159C207.02 156.84 208.51 154.68 210 152.52ZM199 168.5C197.51 170.67 196.02 172.83 194.54 175C196.02 172.83 197.51 170.67 199 168.5Z" fill="#d9d9d8" fill-rule="evenodd" stroke="#d9d9d8" stroke-width="0.25" stroke-linejoin="round"/>
</svg>